<svg width="13" height="12" viewBox="0 0 13 12" fill="none" xmlns="http://www.w3.org/2000/svg">
<path fill-rule="evenodd" clip-rule="evenodd" d="M6.00638 0C6.23857 0 6.47332 0.224538 6.7004 0.438869C6.88223 0.646861 7.11156 0.807914 7.36891 0.908356C7.65126 0.952237 7.94001 0.927736 8.21093 0.836913L8.47135 0.778785C8.68135 0.738131 8.8696 0.725373 9.00447 0.803742C9.19328 0.913459 9.29024 1.2222 9.37699 1.51818C9.43164 1.79777 9.55237 2.06022 9.72911 2.28365C9.95253 2.46039 10.215 2.58112 10.4946 2.63576L10.746 2.71364C10.9497 2.78334 11.1288 2.86978 11.209 3.00829C11.3213 3.20221 11.2498 3.49054 11.1758 3.80183C11.085 4.07275 11.0605 4.3615 11.1044 4.64384C11.2048 4.9012 11.3659 5.13053 11.5739 5.31235L11.7546 5.50864C11.8982 5.67337 12.0128 5.84053 12.0128 6.00638C12.0128 6.23857 11.7882 6.47332 11.5739 6.7004C11.3659 6.88223 11.2048 7.11156 11.1044 7.36891C11.0605 7.65126 11.085 7.94001 11.1758 8.21093L11.2344 8.47135C11.2757 8.68135 11.2892 8.8696 11.209 9.00447C11.1288 9.13933 10.9497 9.22734 10.746 9.29823L10.2345 9.45978L10.0991 9.50712L9.98149 9.5602L9.90517 9.60153C9.84889 9.63545 9.79667 9.67568 9.74952 9.72145C9.57278 9.94488 9.45205 10.2073 9.39741 10.4869L9.31954 10.7384C9.24983 10.942 9.16339 11.1212 9.02488 11.2014C8.81493 11.2789 8.58418 11.2789 8.37423 11.2014L8.23134 11.1682C8.0222 11.1074 7.80607 11.074 7.58835 11.0687C7.52113 11.0702 7.45433 11.0796 7.38933 11.0967C7.33265 11.1129 7.27789 11.1351 7.22603 11.1631L7.1801 11.1886L7.0219 11.2958L6.88667 11.4106L6.72082 11.5662L6.50345 11.7437C6.32663 11.8854 6.15947 12 5.99362 12C5.82777 12 5.66062 11.8867 5.49588 11.743L5.13374 11.4055L5.06804 11.3484L4.95513 11.26L4.89916 11.2208L4.79439 11.158C4.74252 11.13 4.68777 11.1078 4.63109 11.0916C4.57028 11.0755 4.50772 11.0669 4.44482 11.0661H4.19222C4.13864 11.0661 4.0825 11.0814 4.02892 11.0942H3.97533L3.78907 11.1376C3.47778 11.2116 3.18435 11.2805 2.99553 11.1707C2.80672 11.061 2.70976 10.7523 2.62301 10.4563C2.56836 10.1767 2.44763 9.91426 2.27089 9.69084C2.22415 9.64567 2.17284 9.60548 2.1178 9.57091H2.10504C2.05505 9.54098 2.00304 9.51455 1.94939 9.49181L1.91112 9.50712L1.71943 9.43823L1.51818 9.37699C1.2222 9.29024 0.916011 9.19838 0.803742 9.00447C0.691474 8.81055 0.762917 8.52222 0.836913 8.21093C0.927736 7.94001 0.952237 7.65126 0.908356 7.36891C0.807914 7.11156 0.646861 6.88223 0.438869 6.7004L0.258132 6.50412C0.11456 6.33938 0 6.17223 0 6.00638C0 5.77419 0.224538 5.53944 0.438869 5.31235C0.646861 5.13053 0.807914 4.9012 0.908356 4.64384C0.952237 4.3615 0.927736 4.07275 0.836913 3.80183C0.762917 3.49054 0.691474 3.19711 0.803742 3.00829C0.916011 2.81948 1.2222 2.72252 1.51818 2.63576C1.79777 2.58112 2.06022 2.46039 2.28365 2.28365C2.46142 2.06086 2.58227 1.79814 2.63576 1.51818L2.71364 1.26674C2.78334 1.06306 2.86978 0.883934 3.00829 0.803742C3.20221 0.691474 3.49054 0.762917 3.80183 0.836913C4.07275 0.927736 4.3615 0.952237 4.64384 0.908356C4.9012 0.807914 5.13053 0.646861 5.31235 0.438869L5.50864 0.258132C5.67337 0.11456 5.84053 0 6.00638 0Z" fill="url(#paint0_linear)"/>
<path d="M8.00242 3.5L9 3.99166L5.56625 9.5L3 6.91879L3.85455 6.24708L5.35104 7.75263L8.00242 3.5Z" fill="white"/>
<defs>
<linearGradient id="paint0_linear" x1="0" y1="0" x2="0" y2="12" gradientUnits="userSpaceOnUse">
<stop stop-color="#43A5FF"/>
<stop offset="1" stop-color="#1B65FF"/>
</linearGradient>
</defs>
</svg>
