<svg width="88" height="88" viewBox="0 0 88 88" fill="none" xmlns="http://www.w3.org/2000/svg">
<g clip-path="url(#clip0)">
<path d="M0 44C0 19.6995 19.6995 0 44 0C68.3005 0 88 19.6995 88 44C88 68.3005 68.3005 88 44 88C19.6995 88 0 68.3005 0 44Z" fill="url(#paint0_linear)"/>
<path fill-rule="evenodd" clip-rule="evenodd" d="M24.1561 37.8822C24.1561 26.9015 33.0405 18 43.9999 18C54.9594 18 63.8438 26.9015 63.8438 37.8822C63.8438 48.8628 54.9594 57.7643 43.9999 57.7643C33.0405 57.7643 24.1561 48.8628 24.1561 37.8822Z" fill="url(#paint1_linear)"/>
<path d="M30.8439 63.0948C19.8844 63.0948 11 71.9963 11 82.9769V88.8125H15.6047H72.3953H77V82.9769C77 71.9963 68.1156 63.0948 57.1561 63.0948H30.8439Z" fill="url(#paint2_linear)"/>
</g>
<path d="M44 87C20.2518 87 1 67.7482 1 44H-1C-1 68.8528 19.1472 89 44 89V87ZM87 44C87 67.7482 67.7482 87 44 87V89C68.8528 89 89 68.8528 89 44H87ZM44 1C67.7482 1 87 20.2518 87 44H89C89 19.1472 68.8528 -1 44 -1V1ZM44 -1C19.1472 -1 -1 19.1472 -1 44H1C1 20.2518 20.2518 1 44 1V-1Z" fill="white" fill-opacity="0.06"/>
<defs>
<linearGradient id="paint0_linear" x1="0" y1="0" x2="0" y2="88" gradientUnits="userSpaceOnUse">
<stop stop-color="#383838"/>
<stop offset="1" stop-color="#1F1F1F"/>
</linearGradient>
<linearGradient id="paint1_linear" x1="11" y1="18" x2="11" y2="88.8125" gradientUnits="userSpaceOnUse">
<stop stop-color="#9C9C9C"/>
<stop offset="1" stop-color="#7C7C7C"/>
</linearGradient>
<linearGradient id="paint2_linear" x1="11" y1="18" x2="11" y2="88.8125" gradientUnits="userSpaceOnUse">
<stop stop-color="#9C9C9C"/>
<stop offset="1" stop-color="#7C7C7C"/>
</linearGradient>
<clipPath id="clip0">
<path d="M0 44C0 19.6995 19.6995 0 44 0C68.3005 0 88 19.6995 88 44C88 68.3005 68.3005 88 44 88C19.6995 88 0 68.3005 0 44Z" fill="white"/>
</clipPath>
</defs>
</svg>
