<svg xmlns="http://www.w3.org/2000/svg"
  xmlns:xlink="http://www.w3.org/1999/xlink"
  width="375"
  height="375"
  viewBox="0 0 375 375">
  <defs>
    <rect id="photo-placeholder-a"
      width="375"
      height="375"/>
  </defs>
  <g fill="none"
    fill-rule="evenodd">
    <mask id="photo-placeholder-b"
      fill="#fff">
      <use xlink:href="#photo-placeholder-a"/>
    </mask>
    <use fill="#232526"
      xlink:href="#photo-placeholder-a"/>
    <path fill="#999"
      fill-rule="nonzero"
      d="M130.563885,129 L245.436115,129 C246.327634,129 246.65092,129.092826 246.976846,129.267133 C247.302772,129.44144 247.55856,129.697228 247.732867,130.023154 C247.907174,130.34908 248,130.672366 248,131.563885 L248,242.618558 C248,243.510076 247.907174,243.833363 247.732867,244.159289 C247.55856,244.485214 247.302772,244.741003 246.976846,244.91531 C246.65092,245.089617 246.327634,245.182443 245.436115,245.182443 L130.563885,245.182443 C129.672366,245.182443 129.34908,245.089617 129.023154,244.91531 C128.697228,244.741003 128.44144,244.485214 128.267133,244.159289 C128.092826,243.833363 128,243.510076 128,242.618558 L128,131.563885 C128,130.672366 128.092826,130.34908 128.267133,130.023154 C128.44144,129.697228 128.697228,129.44144 129.023154,129.267133 C129.34908,129.092826 129.672366,129 130.563885,129 Z M165.451006,197.685875 C165.410969,197.639282 165.366724,197.596477 165.318831,197.558003 C164.88827,197.212119 164.258837,197.280763 163.912953,197.711323 L141.986556,225.005563 C141.915233,225.094347 141.876356,225.204819 141.876356,225.318702 C141.876356,225.594845 142.100213,225.818702 142.376356,225.818702 L233.646875,225.818702 C233.757728,225.818702 233.865438,225.781864 233.953073,225.713978 C234.171377,225.54487 234.211259,225.230809 234.042151,225.012505 L205.443376,188.093888 C205.395251,188.031763 205.339971,187.975527 205.27868,187.926345 C204.847932,187.580694 204.218536,187.649679 203.872886,188.080427 L181.559419,215.887358 C181.547851,215.901774 181.534975,215.915091 181.520956,215.927137 C181.395291,216.035119 181.205883,216.020784 181.097902,215.895119 L165.451006,197.685875 Z"
      mask="url(#photo-placeholder-b)"
      opacity=".5"/>
  </g>
</svg>
