<svg xmlns="http://www.w3.org/2000/svg"
  xmlns:xlink="http://www.w3.org/1999/xlink"
  width="370"
  height="370"
  viewBox="0 0 370 370">
  <defs>
    <rect id="track-placeholder-a"
      width="370"
      height="370"/>
  </defs>
  <g fill="none"
    fill-rule="evenodd">
    <use fill="#464646"
      xlink:href="#track-placeholder-a"/>
    <path fill="#CCC"
      fill-rule="nonzero"
      d="M186.022867,212.565881 L186.022867,109.714339 C186.022867,105.798561 190.52654,103.595887 193.617468,105.999942 C193.47069,105.885782 200.310474,111.118216 202.340398,112.747864 C219.375367,126.423751 227.70127,140.419362 227.70127,163.492923 C227.70127,166.091768 225.594489,168.198549 222.995644,168.198549 C220.396798,168.198549 218.290018,166.091768 218.290018,163.492923 C218.290018,143.63253 211.444708,132.125755 196.448658,120.086738 C196.188665,119.878013 195.840968,119.603519 195.434119,119.284924 L195.434119,217.271507 L195.434119,238.78294 C195.434119,253.262223 183.696342,265 169.21706,265 C154.737777,265 143,253.262223 143,238.78294 C143,224.303658 154.737777,212.565881 169.21706,212.565881 L186.022867,212.565881 Z"
      opacity=".5"/>
  </g>
</svg>
